<?xml version="1.0" encoding="UTF-8"?>
<svg width="53px" height="14px" viewBox="0 0 53 14" version="1.1" xmlns="http://www.w3.org/2000/svg" xmlns:xlink="http://www.w3.org/1999/xlink">
    <!-- Generator: Sketch 56.3 (81716) - https://sketch.com -->
    <title>path43401</title>
    <desc>Created with Sketch.</desc>
    <g id="Page-1" stroke="none" stroke-width="1" fill="none" fill-rule="evenodd">
        <g id="1526766055" transform="translate(-20322.000000, -1257.000000)" fill="#803300" fill-rule="nonzero" stroke="#000000" stroke-width="2.3150599">
            <path d="M20324.667,1264.086 C20324.375,1262.21 20322.202,1259.714 20323.715,1259.574 C20328.293,1259.15 20332.933,1258.91 20337.53,1259.304 C20343.789,1259.844 20348.653,1260.028 20354.821,1260.953 C20359.428,1261.642 20362.749,1261.833 20367,1261.873 C20367.843,1261.873 20371.756,1261.471 20372.522,1261.793 C20373.458,1262.187 20372.472,1263.348 20372.522,1264.016 C20372.637,1265.661 20372.903,1267.976 20372.522,1269.535 C20372.332,1270.319 20362.656,1268.248 20361.719,1268.148 C20358.713,1267.823 20353.962,1267.485 20350.933,1267.236 C20344.662,1266.722 20342.234,1266.547 20334.974,1266.47 C20333.433,1266.45 20330.43,1266.54 20328.934,1266.929 C20327.588,1267.28 20324.37,1269.916 20324.782,1267.07 C20324.822,1266.786 20324.842,1266.512 20324.852,1266.24 C20324.88,1265.524 20324.78,1264.833 20324.667,1264.086 Z" id="path43401"></path>
        </g>
    </g>
</svg>