<?xml version="1.0" encoding="UTF-8"?>
<svg width="130px" height="79px" viewBox="0 0 130 79" version="1.1" xmlns="http://www.w3.org/2000/svg" xmlns:xlink="http://www.w3.org/1999/xlink">
    <!-- Generator: Sketch 56.3 (81716) - https://sketch.com -->
    <title>g25422</title>
    <desc>Created with Sketch.</desc>
    <g id="Page-1" stroke="none" stroke-width="1" fill="none" fill-rule="evenodd" stroke-linecap="round">
        <g id="1526766055" transform="translate(-25063.000000, -550.000000)" stroke="#000000">
            <g id="g25422" transform="translate(25064.347169, 551.488126)">
                <path d="M2.45724205,74.305953 C-0.0757977154,58.3737502 -2.63850406,41.6387045 7.37627858,25.1173127 C25.8224379,2.37096015 62.8146062,-3.93363722 87.9530437,3.0901317 C128.706038,16.6062228 128.859758,41.4797894 126.554112,64.1175781 C125.289678,57.8075673 122.140014,51.1911463 109.578079,43.0448552 C89.1940322,34.2663184 77.8052547,47.5067061 57.8076322,53.8417377 C42.9611436,57.8700763 28.3425033,58.2190622 25.2971651,47.4944683 C28.5657993,66.6749538 10.3595522,63.8259068 2.45724205,74.305953 L2.45724205,74.305953 Z" id="path25418" stroke-width="2.23325852" fill="#784421"></path>
                <path d="M31.9986998,42.9413095 C64.4839769,55.5986485 65.765406,17.63593 100.838731,28.0938733 C107.070077,30.78913 107.820619,34.5793818 109.07314,37.3735349" id="path25420" stroke-width="1.96867865"></path>
            </g>
        </g>
    </g>
</svg>