<?xml version="1.0" encoding="UTF-8"?>
<svg width="166px" height="92px" viewBox="0 0 166 92" version="1.1" xmlns="http://www.w3.org/2000/svg" xmlns:xlink="http://www.w3.org/1999/xlink">
    <!-- Generator: Sketch 56.3 (81716) - https://sketch.com -->
    <title>path11759</title>
    <desc>Created with Sketch.</desc>
    <g id="Page-1" stroke="none" stroke-width="1" fill="none" fill-rule="evenodd">
        <g id="1526766055" transform="translate(-24766.000000, -558.000000)" fill="#AA8800" stroke="#000000" stroke-width="2.17">
            <path d="M24930.9,606.039 C24930.9,601.703 24928.716,597.822 24925.268,595.151 C24925.973,593.54 24926.375,591.798 24926.375,589.971 C24926.375,583.62 24921.705,578.232 24915.202,576.234 C24913.258,570.061 24906.791,565.523 24899.093,565.523 C24896.424,565.523 24893.909,566.082 24891.671,567.052 C24888.647,563.288 24883.644,560.82 24877.971,560.82 C24873.667,560.82 24869.754,562.25 24866.791,564.579 C24863.735,561.409 24859.37,559.411 24854.504,559.411 C24851.002,559.411 24847.756,560.443 24845.067,562.203 C24842.79,561.028 24840.219,560.351 24837.488,560.351 C24831.916,560.351 24826.992,563.121 24823.955,567.366 C24821.08,565.335 24817.423,564.112 24813.434,564.112 C24808.573,564.112 24804.213,565.931 24801.157,568.816 C24799.827,568.519 24798.441,568.345 24797.006,568.345 C24790.001,568.345 24784.012,572.102 24781.521,577.427 C24773.37,578.401 24767.084,584.479 24767.084,591.851 C24767.084,595.406 24768.549,598.66 24770.973,601.189 C24769.42,603.4 24768.509,605.992 24768.509,608.776 C24768.509,611.869 24769.624,614.731 24771.509,617.09 C24770.373,618.738 24769.724,620.631 24769.724,622.647 C24769.724,626.108 24771.639,629.206 24774.656,631.317 C24774.239,632.591 24774.002,633.95 24774.002,635.369 C24774.002,642.38 24776.22,648.064 24783.025,648.064 C24789.829,648.064 24784.053,641.295 24791.308,635.84 C24793.279,634.358 24794.2,632.534 24794.34,630.723 C24796.891,628.643 24798.473,625.794 24798.473,622.647 C24798.473,621.224 24798.135,619.868 24797.547,618.61 C24798.919,617.308 24800.02,615.793 24800.777,614.121 C24807.256,612.926 24812.393,608.156 24813.869,602.042 C24816.671,601.689 24819.247,600.681 24821.431,599.174 C24824.452,603.555 24829.465,606.428 24835.143,606.428 C24839.198,606.428 24842.912,604.966 24845.807,602.537 C24848.209,603.814 24850.973,604.548 24853.919,604.548 C24860.244,604.548 24865.746,601.189 24868.588,596.236 C24870.16,597.088 24871.901,597.722 24873.762,598.081 C24876.326,603.267 24882.234,606.899 24889.122,606.899 C24892.19,606.899 24895.055,606.167 24897.526,604.909 C24897.496,605.284 24897.466,605.658 24897.466,606.041 C24897.466,611.262 24900.627,615.83 24905.362,618.404 C24905.116,619.385 24904.968,620.41 24904.968,621.473 C24904.968,621.948 24904.998,622.413 24905.048,622.874 C24901.718,626.341 24901.033,631.254 24909.16,635.312 C24917.686,639.568 24907.681,647.636 24914.404,647.636 C24921.128,647.636 24926.579,641.11 24926.579,633.062 C24926.579,631.69 24926.411,630.368 24926.114,629.11 C24927.747,627.016 24928.726,624.363 24928.726,621.471 C24928.726,619.219 24928.122,617.117 24927.088,615.304 C24929.468,612.787 24930.9,609.559 24930.9,606.039 Z" id="path11759"></path>
        </g>
    </g>
</svg>