<?xml version="1.0" encoding="UTF-8"?>
<svg width="167px" height="91px" viewBox="0 0 167 91" version="1.1" xmlns="http://www.w3.org/2000/svg" xmlns:xlink="http://www.w3.org/1999/xlink">
    <!-- Generator: Sketch 56.3 (81716) - https://sketch.com -->
    <title>path42287-9</title>
    <desc>Created with Sketch.</desc>
    <g id="Page-1" stroke="none" stroke-width="1" fill="none" fill-rule="evenodd">
        <g id="1526766055" transform="translate(-25269.000000, -538.000000)" fill="#524541" fill-rule="nonzero" stroke="#000000" stroke-width="2.16702914">
            <path d="M25434.474,626.98 C25420.371,629.293 25409.761,621.931 25402.552,613.048 C25396.842,606.012 25394.442,596.633 25384.363,593.382 C25385.907,595.924 25385.816,599.046 25386.961,601.672 C25383.497,600.746 25380.302,600.281 25377.03,598.765 C25374.037,597.376 25370.667,594.578 25367.135,594.37 C25366.862,596.87 25369.2,599.083 25368.878,601.608 C25365.282,599.83 25360.387,599.066 25356.364,598.013 C25351.663,596.784 25348.381,595.15 25344.224,593.319 C25348.102,595.836 25350.275,599.584 25352.667,602.884 C25346.193,603.298 25339.401,598.31 25334.616,595.252 C25329.432,591.938 25326.82,589.146 25324.818,584.476 C25323.367,585.984 25320.708,586.955 25319.075,588.7 C25317.503,590.377 25316.222,592.151 25315.093,594.087 C25312.531,598.468 25311.225,603.312 25308.199,607.587 C25305.42,611.514 25301.008,614.492 25296.872,617.345 C25294.114,619.25 25291.425,621.47 25288.133,622.736 C25286.359,623.42 25279.386,626.241 25277.331,625.018 C25277.139,625.058 25276.953,625.038 25276.771,624.978 C25277.026,620.304 25281.525,615.439 25280.659,610.569 C25278.767,610.569 25276.896,611.693 25274.931,611.912 C25274.662,607.088 25276.988,602.662 25276.679,597.806 C25275.73,597.935 25274.851,597.959 25274.028,598.48 C25273.714,594.884 25281.676,582.791 25270.969,587.433 C25270.999,583.357 25274.529,577.916 25277.016,574.455 C25282.289,567.132 25288.501,562.519 25297.844,558.673 C25305.939,555.34 25314.832,551.887 25323.597,549.963 C25328.164,548.962 25332.41,546.293 25336.714,545.516 C25337.062,550.424 25337.379,550.832 25343.821,548.677 C25349.485,546.78 25354.577,543.308 25359.671,540.6 C25359.511,543.796 25361.545,547.344 25365.859,546.971 C25368.886,546.709 25371.557,545.271 25374.367,544.314 C25378.259,542.991 25382.51,542.233 25386.349,540.848 C25385.541,542.294 25385.698,544.001 25385.46,545.539 C25385.127,547.659 25383.584,549.605 25383.348,551.59 C25391.743,550.52 25399.618,546.942 25408.524,548.908 C25412.197,549.719 25417.511,551.657 25420.593,553.542 C25417.238,552.956 25412.34,553.622 25409.071,554.615 C25414.099,558.972 25420.688,562.595 25424.362,567.999 C25427.265,572.275 25435.636,583.512 25431.718,588.377 C25431.168,587.097 25429.844,586.148 25428.083,586.511 C25427.334,590.274 25428.451,593.614 25428.651,597.322 C25428.832,600.753 25428.385,604.182 25428.296,607.547 C25424.448,607.497 25423.878,606.236 25424.062,610.036 C25424.181,612.481 25424.29,614.642 25425.34,616.91 C25426.35,619.083 25428.183,620.947 25430.113,622.608 C25431.526,623.827 25434.34,625.586 25434.162,626.973" id="path42287-9"></path>
        </g>
    </g>
</svg>