<?xml version="1.0" encoding="UTF-8"?>
<svg width="222px" height="178px" viewBox="0 0 222 178" version="1.1" xmlns="http://www.w3.org/2000/svg" xmlns:xlink="http://www.w3.org/1999/xlink">
    <!-- Generator: Sketch 56.3 (81716) - https://sketch.com -->
    <title>path4365-0-3-5-3-5-1-25</title>
    <desc>Created with Sketch.</desc>
    <g id="Page-1" stroke="none" stroke-width="1" fill="none" fill-rule="evenodd" stroke-linecap="round" stroke-linejoin="round">
        <g id="1526766055" transform="translate(-25318.000000, -971.000000)" fill="#D45500" fill-rule="nonzero" stroke="#000000" stroke-width="2.23779511">
            <path d="M25375.602,1005.593 C25375.602,1005.593 25375.109,1020.205 25367.154,1049.479 C25367.154,1049.479 25369.481,1071.449 25373.892,1087.018 C25390.658,1144.893 25359.904,1163.681 25319.288,1131.704 C25340.008,1112.784 25351.316,1113.761 25346.686,1079.078 C25339.059,1021.952 25366.906,971.927 25424.472,972.3 C25481.79,968.769 25497.812,1015.273 25497.339,1088.524 C25497.145,1118.569 25538.755,1133.892 25538.755,1133.892 C25436.577,1183.245 25476.096,1081.826 25479.303,1053.442 C25475.741,1029.022 25464.941,1004.262 25464.941,1004.262 C25446.314,1012.941 25389.411,1013.612 25375.602,1005.593 L25375.602,1005.593 Z" id="path4365-0-3-5-3-5-1-25"></path>
        </g>
    </g>
</svg>