<?xml version="1.0" encoding="UTF-8"?>
<svg width="164px" height="179px" viewBox="0 0 164 179" version="1.1" xmlns="http://www.w3.org/2000/svg" xmlns:xlink="http://www.w3.org/1999/xlink">
    <!-- Generator: Sketch 56.3 (81716) - https://sketch.com -->
    <title>path8907</title>
    <desc>Created with Sketch.</desc>
    <g id="Page-1" stroke="none" stroke-width="1" fill="none" fill-rule="evenodd" stroke-linecap="round" stroke-linejoin="round">
        <g id="1526766055" transform="translate(-23450.000000, -966.000000)" fill="#D3BC5F" fill-rule="nonzero" stroke="#000000" stroke-width="3.5469873">
            <path d="M23561.566,981.047 C23578.844,968.962 23627.599,976.572 23606.188,1017.791 C23611.06,1021.336 23611.895,1046.39 23594.558,1047.915 C23588.057,1077.47 23612.05,1075.528 23598.205,1099.063 C23611.039,1137.196 23581.782,1141.431 23567.984,1131.576 C23552.24,1147.926 23525.384,1142.015 23499.392,1137.834 C23468.071,1143.005 23450.514,1127.289 23464.811,1113.511 C23457.192,1113.694 23449.652,1103.491 23461.139,1101.751 C23444.061,1091.763 23457.71,1067.648 23465.535,1072.959 C23456.937,1067.653 23452.015,1053.048 23468.219,1043.446 C23451.675,1042.589 23446.208,1021.644 23461.225,1013.563 C23453.509,1008.453 23461.682,1003.771 23465.102,1003.521 C23450.92,988.522 23473.016,964.396 23506.213,974.582 C23510.949,962.683 23536.893,968.692 23542.91,979.143 C23551.729,975.417 23558.64,977.397 23561.566,981.047 L23561.566,981.047 Z" id="path8907"></path>
        </g>
    </g>
</svg>