<?xml version="1.0" encoding="UTF-8"?>
<svg width="204px" height="153px" viewBox="0 0 204 153" version="1.1" xmlns="http://www.w3.org/2000/svg" xmlns:xlink="http://www.w3.org/1999/xlink">
    <!-- Generator: Sketch 56.3 (81716) - https://sketch.com -->
    <title>path11351-3-3</title>
    <desc>Created with Sketch.</desc>
    <g id="Page-1" stroke="none" stroke-width="1" fill="none" fill-rule="evenodd">
        <g id="1526766055" transform="translate(-24777.000000, -979.000000)" fill="#A05A2C" stroke="#000000" stroke-width="2.16702914">
            <path d="M24824.181,1005.152 L24805.121,1017.495 C24804.314,1024.632 24804.321,1031.846 24803.006,1038.935 C24797.218,1050.915 24792.797,1063.224 24785.13,1074.751 C24764.192,1110.41 24800.408,1128.458 24839.966,1130.179 C24845.011,1131.035 24846.09,1130.333 24842.184,1127.669 C24836.962,1122.853 24827.04,1118.037 24821.817,1113.221 C24833.256,1088.758 24823.478,1068.799 24817.974,1046.09 C24813.484,1031.7 24838.545,1023.437 24847.302,1010.58 C24850.249,1009.26 24853.113,1006.683 24856.11,1006.117 C24870.112,1012.722 24872.133,1010.367 24885.113,1002.813 C24908.188,1009.26 24918.067,1020.648 24926.081,1033.983 C24939.999,1052.506 24924.391,1083.607 24939.629,1094.56 C24945.881,1096.586 24934.904,1129.133 24938.288,1124.379 C24971.018,1106.873 24982.484,1100.285 24978.413,1066.97 C24973.034,1059.678 24966.833,1052.682 24961.972,1045.204 C24958.338,1021.985 24936.489,1008.823 24921.943,992.261 C24912.004,978.111 24904.638,981.499 24883.951,983.981 C24881.319,985.328 24879.027,990.028 24875.981,987.306 C24871.188,985.15 24866.707,982.194 24861.722,980.529074 C24832.431,980.419 24821.508,990.292 24800.475,1004.699 C24786.055,1030.353 24787.521,1046.067 24782.879,1072.888 C24794.366,1061.121 24798.041,1049.646 24800.751,1036.675 C24803.011,1017.133 24805.121,1017.495 24824.181,1005.152 L24824.181,1005.152 Z" id="path11351-3-3"></path>
        </g>
    </g>
</svg>